<svg width="223" height="45" viewBox="0 0 223 45" fill="none" xmlns="http://www.w3.org/2000/svg">
<g id="LEARN GENERATIVE AI">
<path d="M57.6862 0V16.2L55.8382 14.4H69.3502V18H53.6062V0H57.6862Z" fill="white"/>
<path d="M102.51 7.44V10.56H73.6216V7.44H102.51ZM76.3576 9L75.1576 16.632L73.3816 14.616H103.254V18H71.0536L72.4456 9L71.0536 0H103.134V3.384H73.3816L75.1576 1.368L76.3576 9Z" fill="white"/>
<path d="M109.957 14.208V10.896H122.437V14.208H109.957ZM118.909 0L127.333 18H122.989L115.621 1.656H116.965L109.597 18H105.253L113.677 0H118.909Z" fill="white"/>
<path d="M132.102 7.992H139.038C139.95 7.992 140.67 7.784 141.198 7.368C141.742 6.936 142.014 6.344 142.014 5.592C142.014 4.84 141.742 4.256 141.198 3.84C140.67 3.424 139.95 3.216 139.038 3.216H131.502L133.35 1.128V18H129.27V0H139.518C140.83 0 141.982 0.24 142.974 0.720001C143.966 1.184 144.742 1.832 145.302 2.664C145.862 3.496 146.142 4.472 146.142 5.592C146.142 6.696 145.862 7.664 145.302 8.496C144.742 9.328 143.966 9.984 142.974 10.464C141.982 10.928 140.83 11.16 139.518 11.16H132.102V7.992ZM135.222 9.576H139.878L146.67 18H141.894L135.222 9.576Z" fill="white"/>
<path d="M165.872 15.312L164.456 15.528V0H168.416V18H163.256L151.736 2.472L153.128 2.256V18H149.192V0H154.472L165.872 15.312Z" fill="white"/>
<path d="M19.123 36.2C19.107 37.288 18.891 38.328 18.475 39.32C18.075 40.296 17.499 41.168 16.747 41.936C15.995 42.688 15.067 43.28 13.963 43.712C12.859 44.144 11.579 44.36 10.123 44.36C8.71497 44.36 7.39497 44.152 6.16297 43.736C4.94697 43.304 3.87497 42.688 2.94697 41.888C2.03497 41.088 1.32297 40.112 0.810968 38.96C0.298968 37.792 0.0429688 36.472 0.0429688 35C0.0429688 33.528 0.298968 32.216 0.810968 31.064C1.33897 29.896 2.06697 28.912 2.99497 28.112C3.92297 27.312 5.01097 26.704 6.25897 26.288C7.50697 25.856 8.86697 25.64 10.339 25.64C12.259 25.64 13.923 25.944 15.331 26.552C16.739 27.144 17.875 27.968 18.739 29.024C19.619 30.08 20.163 31.288 20.371 32.648H16.267C16.107 31.912 15.755 31.28 15.211 30.752C14.683 30.224 14.003 29.816 13.171 29.528C12.355 29.24 11.411 29.096 10.339 29.096C9.07497 29.096 7.97897 29.328 7.05097 29.792C6.13897 30.24 5.42697 30.904 4.91497 31.784C4.41897 32.664 4.17097 33.736 4.17097 35C4.17097 36.264 4.43497 37.344 4.96297 38.24C5.49097 39.136 6.24297 39.824 7.21897 40.304C8.19497 40.768 9.34697 41 10.675 41C11.971 41 13.107 40.8 14.083 40.4C15.059 39.984 15.827 39.408 16.387 38.672C16.963 37.92 17.291 37.032 17.371 36.008L19.123 36.2ZM11.227 37.856V34.904H20.563V44H17.635L17.083 36.704L17.923 37.856H11.227Z" fill="white"/>
<path d="M38.7088 33.44V36.56H25.8208V33.44H38.7088ZM28.5568 35L27.3568 42.632L25.5808 40.616H39.4528V44H23.2528L24.6448 35L23.2528 26H39.3328V29.384H25.5808L27.3568 27.368L28.5568 35Z" fill="white"/>
<path d="M59.2354 41.312L57.8194 41.528V26H61.7794V44H56.6194L45.0994 28.472L46.4914 28.256V44H42.5554V26H47.8354L59.2354 41.312Z" fill="white"/>
<path d="M80.3338 33.44V36.56H67.4458V33.44H80.3338ZM70.1818 35L68.9818 42.632L67.2058 40.616H81.0778V44H64.8778L66.2698 35L64.8778 26H80.9578V29.384H67.2058L68.9818 27.368L70.1818 35Z" fill="white"/>
<path d="M87.0124 33.992H93.9484C94.8604 33.992 95.5804 33.784 96.1084 33.368C96.6524 32.936 96.9244 32.344 96.9244 31.592C96.9244 30.84 96.6524 30.256 96.1084 29.84C95.5804 29.424 94.8604 29.216 93.9484 29.216H86.4124L88.2604 27.128V44H84.1804V26H94.4284C95.7404 26 96.8924 26.24 97.8844 26.72C98.8764 27.184 99.6524 27.832 100.212 28.664C100.772 29.496 101.052 30.472 101.052 31.592C101.052 32.696 100.772 33.664 100.212 34.496C99.6524 35.328 98.8764 35.984 97.8844 36.464C96.8924 36.928 95.7404 37.16 94.4284 37.16H87.0124V33.992ZM90.1324 35.576H94.7884L101.58 44H96.8044L90.1324 35.576Z" fill="white"/>
<path d="M106.679 40.208V36.896H119.159V40.208H106.679ZM115.631 26L124.055 44H119.711L112.343 27.656H113.687L106.319 44H101.975L110.399 26H115.631Z" fill="white"/>
<path d="M128.705 27.824H132.761V44H128.705V27.824ZM121.529 26H139.913V29.6H121.529V26Z" fill="white"/>
<path d="M142.188 26H146.268V44H142.188V26Z" fill="white"/>
<path d="M159.978 42.2H158.178L165.522 26H169.842L161.298 44H156.714L148.194 26H152.562L159.978 42.2Z" fill="white"/>
<path d="M186.67 33.44V36.56H173.782V33.44H186.67ZM176.518 35L175.318 42.632L173.542 40.616H187.414V44H171.214L172.606 35L171.214 26H187.294V29.384H173.542L175.318 27.368L176.518 35Z" fill="white"/>
<path d="M198.718 40.208V36.896H211.198V40.208H198.718ZM207.67 26L216.094 44H211.75L204.382 27.656H205.726L198.358 44H194.014L202.438 26H207.67Z" fill="white"/>
<path d="M218.032 26H222.112V44H218.032V26Z" fill="white"/>
</g>
</svg>
